<?xml version="1.0" standalone="no"?>
<!DOCTYPE svg PUBLIC "-//W3C//DTD SVG 20010904//EN"
 "http://www.w3.org/TR/2001/REC-SVG-20010904/DTD/svg10.dtd">
<svg version="1.0" xmlns="http://www.w3.org/2000/svg"
 width="500.000000pt" height="500.000000pt" viewBox="0 0 500.000000 500.000000"
 preserveAspectRatio="xMidYMid meet">
<metadata>
Created by potrace 1.14, written by Peter Selinger 2001-2017
</metadata>
<g transform="translate(0.000000,500.000000) scale(0.100000,-0.100000)"
fill="#000000" stroke="none">
<path d="M2487 4568 c-9 -13 -30 -39 -48 -58 -17 -19 -70 -79 -116 -132 -84
-97 -138 -143 -221 -189 -35 -19 -49 -36 -77 -92 -32 -68 -34 -70 -92 -89 -79
-27 -204 -88 -288 -144 -66 -43 -73 -45 -126 -41 -30 3 -106 21 -168 41 -62
20 -129 38 -149 39 l-35 2 -3 -197 c-4 -233 -17 -308 -69 -397 -20 -34 -56
-104 -79 -154 -71 -151 -253 -358 -417 -473 -43 -31 -86 -65 -94 -77 -16 -23
-15 -26 74 -162 79 -121 251 -309 357 -391 18 -14 36 -41 43 -64 16 -54 81
-177 139 -263 l47 -70 1 -291 c0 -174 4 -291 10 -291 38 2 122 24 264 71 l165
55 97 -64 c112 -74 161 -98 268 -134 65 -21 80 -30 93 -57 25 -51 96 -124 187
-190 47 -35 122 -97 167 -139 62 -56 88 -74 103 -70 11 3 20 9 20 13 0 12 111
123 170 169 83 64 158 140 200 201 35 51 44 57 117 83 85 31 196 83 314 148
l77 42 112 -42 c95 -36 180 -60 298 -86 22 -5 22 -5 23 137 1 139 2 158 13
263 16 153 18 160 77 269 33 60 59 111 59 112 0 2 14 34 31 71 17 38 40 91 50
120 14 37 42 75 102 136 170 175 201 212 280 330 38 56 44 72 37 92 -5 12 -6
25 -4 28 3 3 -4 11 -16 17 -62 33 -381 379 -407 440 -35 82 -114 240 -154 305
-53 88 -69 168 -73 365 l-4 145 -40 -3 c-22 -1 -91 -18 -153 -36 -164 -50
-158 -50 -221 -8 -122 83 -252 140 -376 167 -24 5 -34 13 -39 33 -11 46 -64
118 -101 138 -55 29 -127 89 -190 157 -31 33 -66 70 -77 82 -11 12 -44 51 -74
88 -30 37 -58 67 -62 67 -4 0 -14 -10 -22 -22z"/>
</g>
</svg>
